<?xml version="1.0" encoding="UTF-8" standalone="no"?>
<svg
   xmlns:dc="http://purl.org/dc/elements/1.1/"
   xmlns:cc="http://creativecommons.org/ns#"
   xmlns:rdf="http://www.w3.org/1999/02/22-rdf-syntax-ns#"
   xmlns:svg="http://www.w3.org/2000/svg"
   xmlns="http://www.w3.org/2000/svg"
   xmlns:sodipodi="http://sodipodi.sourceforge.net/DTD/sodipodi-0.dtd"
   xmlns:inkscape="http://www.inkscape.org/namespaces/inkscape"
   width="210mm"
   height="297mm"
   viewBox="0 0 210 297"
   version="1.1"
   id="svg8"
   inkscape:version="1.0.2 (e86c870879, 2021-01-15)"
   sodipodi:docname="plannr.svg">
  <defs
     id="defs2">
    <inkscape:path-effect
       effect="powerstroke"
       id="path-effect223"
       is_visible="true"
       lpeversion="1"
       offset_points="6,0.1322915"
       sort_points="true"
       interpolator_type="CubicBezierJohan"
       interpolator_beta="0.2"
       start_linecap_type="zerowidth"
       linejoin_type="extrp_arc"
       miter_limit="4"
       scale_width="1"
       end_linecap_type="zerowidth" />
    <inkscape:path-effect
       effect="skeletal"
       id="path-effect219"
       is_visible="true"
       lpeversion="1"
       pattern="M 0,5 C 0,2.24 2.24,0 5,0 7.76,0 10,2.24 10,5 10,7.76 7.76,10 5,10 2.24,10 0,7.76 0,5 Z"
       copytype="single_stretched"
       prop_scale="1"
       scale_y_rel="false"
       spacing="0"
       normal_offset="0"
       tang_offset="0"
       prop_units="false"
       vertical_pattern="false"
       hide_knot="false"
       fuse_tolerance="0" />
    <inkscape:path-effect
       effect="skeletal"
       id="path-effect215"
       is_visible="true"
       lpeversion="1"
       pattern="M 0,5 C 0,2.24 2.24,0 5,0 7.76,0 10,2.24 10,5 10,7.76 7.76,10 5,10 2.24,10 0,7.76 0,5 Z"
       copytype="single_stretched"
       prop_scale="1"
       scale_y_rel="false"
       spacing="0"
       normal_offset="0"
       tang_offset="0"
       prop_units="false"
       vertical_pattern="false"
       hide_knot="false"
       fuse_tolerance="0" />
    <inkscape:path-effect
       effect="skeletal"
       id="path-effect211"
       is_visible="true"
       lpeversion="1"
       pattern="M 0,5 C 0,2.24 2.24,0 5,0 7.76,0 10,2.24 10,5 10,7.76 7.76,10 5,10 2.24,10 0,7.76 0,5 Z"
       copytype="single_stretched"
       prop_scale="1"
       scale_y_rel="false"
       spacing="0"
       normal_offset="0"
       tang_offset="0"
       prop_units="false"
       vertical_pattern="false"
       hide_knot="false"
       fuse_tolerance="0" />
    <inkscape:path-effect
       effect="skeletal"
       id="path-effect207"
       is_visible="true"
       lpeversion="1"
       pattern="M 0,5 C 0,2.24 2.24,0 5,0 7.76,0 10,2.24 10,5 10,7.76 7.76,10 5,10 2.24,10 0,7.76 0,5 Z"
       copytype="single_stretched"
       prop_scale="1"
       scale_y_rel="false"
       spacing="0"
       normal_offset="0"
       tang_offset="0"
       prop_units="false"
       vertical_pattern="false"
       hide_knot="false"
       fuse_tolerance="0" />
    <inkscape:path-effect
       effect="skeletal"
       id="path-effect203"
       is_visible="true"
       lpeversion="1"
       pattern="M 0,5 C 0,2.24 2.24,0 5,0 7.76,0 10,2.24 10,5 10,7.76 7.76,10 5,10 2.24,10 0,7.76 0,5 Z"
       copytype="single_stretched"
       prop_scale="1"
       scale_y_rel="false"
       spacing="0"
       normal_offset="0"
       tang_offset="0"
       prop_units="false"
       vertical_pattern="false"
       hide_knot="false"
       fuse_tolerance="0" />
    <inkscape:path-effect
       effect="skeletal"
       id="path-effect199"
       is_visible="true"
       lpeversion="1"
       pattern="M 0,5 C 0,2.24 2.24,0 5,0 7.76,0 10,2.24 10,5 10,7.76 7.76,10 5,10 2.24,10 0,7.76 0,5 Z"
       copytype="single_stretched"
       prop_scale="1"
       scale_y_rel="false"
       spacing="0"
       normal_offset="0"
       tang_offset="0"
       prop_units="false"
       vertical_pattern="false"
       hide_knot="false"
       fuse_tolerance="0" />
    <inkscape:path-effect
       effect="skeletal"
       id="path-effect195"
       is_visible="true"
       lpeversion="1"
       pattern="M 0,5 C 0,2.24 2.24,0 5,0 7.76,0 10,2.24 10,5 10,7.76 7.76,10 5,10 2.24,10 0,7.76 0,5 Z"
       copytype="single_stretched"
       prop_scale="1"
       scale_y_rel="false"
       spacing="0"
       normal_offset="0"
       tang_offset="0"
       prop_units="false"
       vertical_pattern="false"
       hide_knot="false"
       fuse_tolerance="0" />
    <inkscape:path-effect
       effect="skeletal"
       id="path-effect191"
       is_visible="true"
       lpeversion="1"
       pattern="M 0,5 C 0,2.24 2.24,0 5,0 7.76,0 10,2.24 10,5 10,7.76 7.76,10 5,10 2.24,10 0,7.76 0,5 Z"
       copytype="single_stretched"
       prop_scale="1"
       scale_y_rel="false"
       spacing="0"
       normal_offset="0"
       tang_offset="0"
       prop_units="false"
       vertical_pattern="false"
       hide_knot="false"
       fuse_tolerance="0" />
    <inkscape:path-effect
       effect="skeletal"
       id="path-effect187"
       is_visible="true"
       lpeversion="1"
       pattern="M 0,5 C 0,2.24 2.24,0 5,0 7.76,0 10,2.24 10,5 10,7.76 7.76,10 5,10 2.24,10 0,7.76 0,5 Z"
       copytype="single_stretched"
       prop_scale="1"
       scale_y_rel="false"
       spacing="0"
       normal_offset="0"
       tang_offset="0"
       prop_units="false"
       vertical_pattern="false"
       hide_knot="false"
       fuse_tolerance="0" />
    <inkscape:path-effect
       effect="powerstroke"
       id="path-effect183"
       is_visible="true"
       lpeversion="1"
       offset_points="0,0.1322915"
       sort_points="true"
       interpolator_type="CubicBezierJohan"
       interpolator_beta="0.2"
       start_linecap_type="zerowidth"
       linejoin_type="extrp_arc"
       miter_limit="4"
       scale_width="1"
       end_linecap_type="zerowidth" />
    <inkscape:path-effect
       effect="powerstroke"
       id="path-effect177"
       is_visible="true"
       lpeversion="1"
       offset_points="0,0.1322915"
       sort_points="true"
       interpolator_type="CubicBezierJohan"
       interpolator_beta="0.2"
       start_linecap_type="zerowidth"
       linejoin_type="extrp_arc"
       miter_limit="4"
       scale_width="1"
       end_linecap_type="zerowidth" />
    <inkscape:path-effect
       effect="powerstroke"
       id="path-effect171"
       is_visible="true"
       lpeversion="1"
       offset_points="0,0.1322915"
       sort_points="true"
       interpolator_type="CubicBezierJohan"
       interpolator_beta="0.2"
       start_linecap_type="zerowidth"
       linejoin_type="extrp_arc"
       miter_limit="4"
       scale_width="1"
       end_linecap_type="zerowidth" />
    <inkscape:path-effect
       effect="powerstroke"
       id="path-effect165"
       is_visible="true"
       lpeversion="1"
       offset_points="0,0.1322915"
       sort_points="true"
       interpolator_type="CubicBezierJohan"
       interpolator_beta="0.2"
       start_linecap_type="zerowidth"
       linejoin_type="extrp_arc"
       miter_limit="4"
       scale_width="1"
       end_linecap_type="zerowidth" />
    <inkscape:path-effect
       effect="powerstroke"
       id="path-effect159"
       is_visible="true"
       lpeversion="1"
       offset_points="0,0.1322915"
       sort_points="true"
       interpolator_type="CubicBezierJohan"
       interpolator_beta="0.2"
       start_linecap_type="zerowidth"
       linejoin_type="extrp_arc"
       miter_limit="4"
       scale_width="1"
       end_linecap_type="zerowidth" />
    <inkscape:path-effect
       effect="powerstroke"
       id="path-effect153"
       is_visible="true"
       lpeversion="1"
       offset_points="0,0.1322915"
       sort_points="true"
       interpolator_type="CubicBezierJohan"
       interpolator_beta="0.2"
       start_linecap_type="zerowidth"
       linejoin_type="extrp_arc"
       miter_limit="4"
       scale_width="1"
       end_linecap_type="zerowidth" />
    <inkscape:path-effect
       effect="powerstroke"
       id="path-effect147"
       is_visible="true"
       lpeversion="1"
       offset_points="0,0.1322915"
       sort_points="true"
       interpolator_type="CubicBezierJohan"
       interpolator_beta="0.2"
       start_linecap_type="zerowidth"
       linejoin_type="extrp_arc"
       miter_limit="4"
       scale_width="1"
       end_linecap_type="zerowidth" />
    <inkscape:path-effect
       effect="powerstroke"
       id="path-effect141"
       is_visible="true"
       lpeversion="1"
       offset_points="0,0.1322915"
       sort_points="true"
       interpolator_type="CubicBezierJohan"
       interpolator_beta="0.2"
       start_linecap_type="zerowidth"
       linejoin_type="extrp_arc"
       miter_limit="4"
       scale_width="1"
       end_linecap_type="zerowidth" />
    <inkscape:path-effect
       effect="powerstroke"
       id="path-effect135"
       is_visible="true"
       lpeversion="1"
       offset_points="0,0.1322915"
       sort_points="true"
       interpolator_type="CubicBezierJohan"
       interpolator_beta="0.2"
       start_linecap_type="zerowidth"
       linejoin_type="extrp_arc"
       miter_limit="4"
       scale_width="1"
       end_linecap_type="zerowidth" />
    <inkscape:path-effect
       effect="powerstroke"
       id="path-effect129"
       is_visible="true"
       lpeversion="1"
       offset_points="0,0.1322915"
       sort_points="true"
       interpolator_type="CubicBezierJohan"
       interpolator_beta="0.2"
       start_linecap_type="zerowidth"
       linejoin_type="extrp_arc"
       miter_limit="4"
       scale_width="1"
       end_linecap_type="zerowidth" />
    <inkscape:path-effect
       effect="powerstroke"
       id="path-effect123"
       is_visible="true"
       lpeversion="1"
       offset_points="0,0.1322915"
       sort_points="true"
       interpolator_type="CubicBezierJohan"
       interpolator_beta="0.2"
       start_linecap_type="zerowidth"
       linejoin_type="extrp_arc"
       miter_limit="4"
       scale_width="1"
       end_linecap_type="zerowidth" />
    <inkscape:path-effect
       effect="powerstroke"
       id="path-effect117"
       is_visible="true"
       lpeversion="1"
       offset_points="0,0.1322915"
       sort_points="true"
       interpolator_type="CubicBezierJohan"
       interpolator_beta="0.2"
       start_linecap_type="zerowidth"
       linejoin_type="extrp_arc"
       miter_limit="4"
       scale_width="1"
       end_linecap_type="zerowidth" />
    <inkscape:path-effect
       effect="powerstroke"
       id="path-effect111"
       is_visible="true"
       lpeversion="1"
       offset_points="0,0.1322915"
       sort_points="true"
       interpolator_type="CubicBezierJohan"
       interpolator_beta="0.2"
       start_linecap_type="zerowidth"
       linejoin_type="extrp_arc"
       miter_limit="4"
       scale_width="1"
       end_linecap_type="zerowidth" />
    <inkscape:path-effect
       effect="powerstroke"
       id="path-effect103"
       is_visible="true"
       lpeversion="1"
       offset_points="1.8684057,0.17409075 | 3.8165233,0.09836401 | 6.1891578,0.25722866"
       sort_points="true"
       interpolator_type="CentripetalCatmullRom"
       interpolator_beta="0.75"
       start_linecap_type="peak"
       linejoin_type="spiro"
       miter_limit="4"
       scale_width="1"
       end_linecap_type="peak" />
    <inkscape:path-effect
       effect="simplify"
       id="path-effect101"
       is_visible="true"
       lpeversion="1"
       steps="1"
       threshold="0.0046945055"
       smooth_angles="0"
       helper_size="0"
       simplify_individual_paths="false"
       simplify_just_coalesce="false"
       step="1" />
    <inkscape:path-effect
       effect="powerstroke"
       id="path-effect96"
       is_visible="true"
       lpeversion="1"
       offset_points="1.1870639,0.1667084 | 2.0987044,0.36349409"
       sort_points="true"
       interpolator_type="CentripetalCatmullRom"
       interpolator_beta="0.75"
       start_linecap_type="peak"
       linejoin_type="spiro"
       miter_limit="4"
       scale_width="1"
       end_linecap_type="peak" />
    <inkscape:path-effect
       effect="simplify"
       id="path-effect94"
       is_visible="true"
       lpeversion="1"
       steps="1"
       threshold="0.0046945055"
       smooth_angles="0"
       helper_size="0"
       simplify_individual_paths="false"
       simplify_just_coalesce="false"
       step="1" />
    <inkscape:path-effect
       effect="powerstroke"
       id="path-effect89"
       is_visible="true"
       lpeversion="1"
       offset_points="2.486693,0.26276542 | 2.9206703,0.085416065 | 6.829628,0.13161341 | 7.0425035,0.052166665 | 10.049761,0.14825253"
       sort_points="true"
       interpolator_type="CentripetalCatmullRom"
       interpolator_beta="0.75"
       start_linecap_type="peak"
       linejoin_type="spiro"
       miter_limit="4"
       scale_width="1"
       end_linecap_type="peak" />
    <inkscape:path-effect
       effect="simplify"
       id="path-effect87"
       is_visible="true"
       lpeversion="1"
       steps="1"
       threshold="0.0046945055"
       smooth_angles="0"
       helper_size="0"
       simplify_individual_paths="false"
       simplify_just_coalesce="false"
       step="1" />
    <inkscape:path-effect
       effect="powerstroke"
       id="path-effect82"
       is_visible="true"
       lpeversion="1"
       offset_points="1.9306935,0.41433785 | 5.3276516,0.49574012"
       sort_points="true"
       interpolator_type="CentripetalCatmullRom"
       interpolator_beta="0.75"
       start_linecap_type="peak"
       linejoin_type="spiro"
       miter_limit="4"
       scale_width="1"
       end_linecap_type="peak" />
    <inkscape:path-effect
       effect="simplify"
       id="path-effect80"
       is_visible="true"
       lpeversion="1"
       steps="1"
       threshold="0.0046945055"
       smooth_angles="0"
       helper_size="0"
       simplify_individual_paths="false"
       simplify_just_coalesce="false"
       step="1" />
    <inkscape:path-effect
       effect="powerstroke"
       id="path-effect75"
       is_visible="true"
       lpeversion="1"
       offset_points="1.9544624,0.55810978 | 6.9770772,0.73648647"
       sort_points="true"
       interpolator_type="CentripetalCatmullRom"
       interpolator_beta="0.75"
       start_linecap_type="round"
       linejoin_type="spiro"
       miter_limit="4"
       scale_width="1"
       end_linecap_type="round" />
    <inkscape:path-effect
       effect="simplify"
       id="path-effect73"
       is_visible="true"
       lpeversion="1"
       steps="1"
       threshold="0.0046945055"
       smooth_angles="0"
       helper_size="0"
       simplify_individual_paths="false"
       simplify_just_coalesce="false"
       step="1" />
    <inkscape:path-effect
       effect="powerstroke"
       id="path-effect68"
       is_visible="true"
       lpeversion="1"
       offset_points="1.9149242,0.72091433"
       sort_points="true"
       interpolator_type="CentripetalCatmullRom"
       interpolator_beta="0.75"
       start_linecap_type="round"
       linejoin_type="spiro"
       miter_limit="4"
       scale_width="1"
       end_linecap_type="round" />
    <inkscape:path-effect
       effect="simplify"
       id="path-effect66"
       is_visible="true"
       lpeversion="1"
       steps="1"
       threshold="0.0046945055"
       smooth_angles="0"
       helper_size="0"
       simplify_individual_paths="false"
       simplify_just_coalesce="false"
       step="1" />
    <inkscape:path-effect
       effect="powerstroke"
       id="path-effect61"
       is_visible="true"
       lpeversion="1"
       offset_points="1.932625,0.53905013 | 5.1998546,0.76938802"
       sort_points="true"
       interpolator_type="CentripetalCatmullRom"
       interpolator_beta="0.75"
       start_linecap_type="round"
       linejoin_type="spiro"
       miter_limit="4"
       scale_width="1"
       end_linecap_type="round" />
    <inkscape:path-effect
       effect="simplify"
       id="path-effect59"
       is_visible="true"
       lpeversion="1"
       steps="1"
       threshold="0.0046945055"
       smooth_angles="0"
       helper_size="0"
       simplify_individual_paths="false"
       simplify_just_coalesce="false"
       step="1" />
    <inkscape:path-effect
       effect="powerstroke"
       id="path-effect54"
       is_visible="true"
       lpeversion="1"
       offset_points="0.97760672,0.69839421"
       sort_points="true"
       interpolator_type="CentripetalCatmullRom"
       interpolator_beta="0.75"
       start_linecap_type="round"
       linejoin_type="spiro"
       miter_limit="4"
       scale_width="1"
       end_linecap_type="round" />
    <inkscape:path-effect
       effect="simplify"
       id="path-effect52"
       is_visible="true"
       lpeversion="1"
       steps="1"
       threshold="0.0046945055"
       smooth_angles="0"
       helper_size="0"
       simplify_individual_paths="false"
       simplify_just_coalesce="false"
       step="1" />
    <inkscape:path-effect
       effect="powerstroke"
       id="path-effect47"
       is_visible="true"
       lpeversion="1"
       offset_points="2.742079,0.6550842 | 3.7855934,0.79363838 | 10.503186,0.5771424 | 13.67985,0.70358492"
       sort_points="true"
       interpolator_type="CentripetalCatmullRom"
       interpolator_beta="0.75"
       start_linecap_type="round"
       linejoin_type="spiro"
       miter_limit="4"
       scale_width="1"
       end_linecap_type="round" />
    <inkscape:path-effect
       effect="simplify"
       id="path-effect45"
       is_visible="true"
       lpeversion="1"
       steps="1"
       threshold="0.0046945055"
       smooth_angles="0"
       helper_size="0"
       simplify_individual_paths="false"
       simplify_just_coalesce="false"
       step="1" />
    <inkscape:path-effect
       effect="powerstroke"
       id="path-effect42"
       is_visible="true"
       lpeversion="1"
       offset_points="0,0.1322915"
       sort_points="true"
       interpolator_type="CubicBezierJohan"
       interpolator_beta="0.2"
       start_linecap_type="zerowidth"
       linejoin_type="extrp_arc"
       miter_limit="4"
       scale_width="1"
       end_linecap_type="zerowidth" />
    <inkscape:path-effect
       effect="powerstroke"
       id="path-effect38"
       is_visible="true"
       lpeversion="1"
       offset_points="0,0.1322915"
       sort_points="true"
       interpolator_type="CubicBezierJohan"
       interpolator_beta="0.2"
       start_linecap_type="zerowidth"
       linejoin_type="extrp_arc"
       miter_limit="4"
       scale_width="1"
       end_linecap_type="zerowidth" />
    <inkscape:path-effect
       effect="powerstroke"
       id="path-effect34"
       is_visible="true"
       lpeversion="1"
       offset_points="0,0.1322915"
       sort_points="true"
       interpolator_type="CubicBezierJohan"
       interpolator_beta="0.2"
       start_linecap_type="zerowidth"
       linejoin_type="extrp_arc"
       miter_limit="4"
       scale_width="1"
       end_linecap_type="zerowidth" />
    <inkscape:path-effect
       effect="simplify"
       id="path-effect32"
       is_visible="true"
       lpeversion="1"
       steps="1"
       threshold="0.00120879"
       smooth_angles="360"
       helper_size="0"
       simplify_individual_paths="false"
       simplify_just_coalesce="false" />
    <inkscape:path-effect
       effect="powerstroke"
       id="path-effect28"
       is_visible="true"
       lpeversion="1"
       offset_points="0,0.1322915"
       sort_points="true"
       interpolator_type="CubicBezierJohan"
       interpolator_beta="0.2"
       start_linecap_type="zerowidth"
       linejoin_type="extrp_arc"
       miter_limit="4"
       scale_width="1"
       end_linecap_type="zerowidth" />
    <inkscape:path-effect
       effect="powerstroke"
       id="path-effect24"
       is_visible="true"
       lpeversion="1"
       offset_points="0,0.1322915"
       sort_points="true"
       interpolator_type="CubicBezierJohan"
       interpolator_beta="0.2"
       start_linecap_type="zerowidth"
       linejoin_type="extrp_arc"
       miter_limit="4"
       scale_width="1"
       end_linecap_type="zerowidth" />
    <inkscape:path-effect
       effect="powerstroke"
       id="path-effect20"
       is_visible="true"
       lpeversion="1"
       offset_points="0,0.1322915"
       sort_points="true"
       interpolator_type="CubicBezierJohan"
       interpolator_beta="0.2"
       start_linecap_type="zerowidth"
       linejoin_type="extrp_arc"
       miter_limit="4"
       scale_width="1"
       end_linecap_type="zerowidth" />
  </defs>
  <sodipodi:namedview
     id="base"
     pagecolor="#ffffff"
     bordercolor="#666666"
     borderopacity="1.0"
     inkscape:pageopacity="0.0"
     inkscape:pageshadow="2"
     inkscape:zoom="0.7"
     inkscape:cx="462.80126"
     inkscape:cy="234.05338"
     inkscape:document-units="mm"
     inkscape:current-layer="layer1"
     inkscape:document-rotation="0"
     showgrid="false"
     inkscape:window-width="1346"
     inkscape:window-height="725"
     inkscape:window-x="7"
     inkscape:window-y="7"
     inkscape:window-maximized="0" />
  <metadata
     id="metadata5">
    <rdf:RDF>
      <cc:Work
         rdf:about="">
        <dc:format>image/svg+xml</dc:format>
        <dc:type
           rdf:resource="http://purl.org/dc/dcmitype/StillImage" />
        <dc:title></dc:title>
      </cc:Work>
    </rdf:RDF>
  </metadata>
  <g
     inkscape:label="Layer 1"
     inkscape:groupmode="layer"
     id="layer1">
    <text
       xml:space="preserve"
       style="font-style:normal;font-variant:normal;font-weight:bold;font-stretch:normal;font-size:36.7422px;line-height:1.25;font-family:'Noto Serif Display';-inkscape-font-specification:'Noto Serif Display Bold';letter-spacing:0.19px;word-spacing:0.0995237px;fill:#000000;fill-opacity:1;stroke:none;stroke-width:0.918553"
       x="47.837894"
       y="77.517166"
       id="text12"
       transform="scale(1.0152465,0.98498247)"><tspan
         id="tspan10"
         x="47.837894"
         y="77.517166"
         style="font-style:normal;font-variant:normal;font-weight:bold;font-stretch:normal;font-family:'Noto Serif Display';-inkscape-font-specification:'Noto Serif Display Bold';fill:#1a1a1a;fill-opacity:1;stroke-width:0.918553"
         sodipodi:role="line"
         dx="0 0.58132583">lannr</tspan></text>
    <path
       id="path413"
       style="fill:#23d1ba;fill-opacity:1;stroke-width:3.71681"
       d="m 165.77148,76.208984 c -16.18296,-0.157345 -23.84189,1.165404 -42.57617,3.076172 -19.41532,3.317329 -19.94551,2.508008 -37.341794,8.542969 -4.176821,1.448995 -8.413751,2.853679 -12.304688,4.982422 -14.951762,8.180103 -29.510824,17.097483 -44.128906,25.890623 -5.867596,3.52948 -5.130957,3.07861 -8.332031,6.90039 l 33.24414,-14.44922 c -27.22922,15.88193 -7.640492,5.62113 2.113281,1.39063 18.546346,-8.04412 22.345389,-9.27299 43.048829,-14.771486 20.630339,-2.749719 28.876959,-4.984807 49.623049,-3.339843 7.2756,0.576793 14.61494,1.476365 21.60351,3.632812 9.38206,2.895047 21.37544,9.704297 26.8418,18.792967 2.18155,3.62721 2.24877,8.20858 3.37305,12.3125 -1.04765,4.37072 -1.31813,9.01863 -3.14258,13.11133 -4.9154,11.02613 -14.42465,20.60703 -23.33985,28.02148 -10.32995,8.59136 -26.30505,18.53006 -38.03515,24.96875 -2.80587,1.54009 5.34369,-3.54834 8.01562,-5.32226 -26.72654,15.9078 -15.09691,10.79348 -33.70312,17.92383 l -1.44336,1.16015 c 11.6356,-4.44767 6.64527,-4.90116 14.84375,-2.40429 14.80533,-8.00962 29.71177,-15.82587 44.41602,-24.0293 14.08023,-7.85541 29.66696,-17.27953 42.19335,-27.59961 9.73313,-8.01876 23.26221,-20.85492 28.38672,-33.35352 2.0061,-4.89278 2.06012,-10.48297 2.1875,-15.76757 -1.48711,-4.77766 -3.6838,-9.356219 -7.10937,-12.773441 -9.2219,-9.199408 -24.54977,-12.825604 -36.40039,-14.751953 -8.09711,-1.31607 -16.32354,-1.726612 -24.51758,-1.984375 -2.71694,-0.08546 -5.20377,-0.137679 -7.51563,-0.160157 z"
       transform="scale(0.26458333)"
       sodipodi:nodetypes="scscsccscccscccccccccsscscss" />
    <path
       id="path415"
       style="fill:#23d1ba;fill-opacity:1;stroke-width:0.950977"
       d="m 36.368953,28.229284 -11.523958,6.924421 c 0.04682,0.58525 0.05928,1.176026 0.140467,1.756123 0.354695,2.53558 0.918995,5.026325 1.278863,7.560905 0.907906,6.394449 1.455539,12.857139 2.042682,19.299065 0.126313,2.263151 0.47644,9.726799 1.397009,12.188936 0.948241,2.536206 2.605878,1.221047 4.43087,2.520619 4.813021,-4.47467 3.79464,-4.771459 4.150469,-8.441531 0.313708,-3.235628 -0.305641,-8.930365 -0.611055,-11.986187 -0.445006,-6.605197 -0.942945,-13.221361 -1.177651,-19.843009 -0.203426,-5.738669 -0.02525,-3.479187 -0.06622,-8.243127 -0.0053,-0.57925 -0.04107,-1.157421 -0.06148,-1.736215 z"
       sodipodi:nodetypes="cccscccscccc" />
    <circle
       style="fill:#ff8b86;fill-opacity:1;stroke-width:1.30892"
       id="path423"
       cx="22.934721"
       cy="13.164977"
       r="7.7275028" />
    <circle
       style="fill:#ff8b86;fill-opacity:1;stroke-width:0.904758"
       id="path427"
       cx="48.984779"
       cy="14.494709"
       r="4.7040143" />
    <path
       style="fill:#23d1ba;fill-opacity:1;stroke-width:0.904758"
       id="path1330"
       d="m 52.856776,29.279491 c 0.180143,0.68662 0.17833,1.40947 0.207431,2.11468 0.01299,1.08699 -0.06849,2.16932 -0.166909,3.25066 -0.07988,0.73982 -0.123446,1.48258 -0.206644,2.22209 -0.02291,0.61629 -0.04552,1.23705 -0.152991,1.84491 0.122146,0.17707 -0.258725,0.45025 -0.144922,0.63523 0.05447,0.0886 0.195326,0.10006 0.298768,0.0896 0.296886,-0.0301 0.580512,-0.1385 0.870768,-0.20774 0,0 0.145126,-0.0672 0.145126,-0.0672 v 0 c 0.46264,-0.30335 1.191369,-0.68744 1.562836,-1.17865 0.09845,-0.13015 0.171081,-0.54963 0.203704,-0.70181 0.11965,-0.65052 0.261562,-1.29864 0.271239,-1.96364 -0.05936,-0.68781 -0.06949,-1.37678 -0.0845,-2.06675 -0.01368,-1.06135 -0.01368,-2.12183 0.0044,-3.18321 0.01539,-0.46434 0.02325,-0.62155 0.02838,-1.07777 0.0044,-0.38968 -0.02018,-0.7894 0.07762,-1.17065 0,0 -2.914819,1.46031 -2.914819,1.46031 z" />
    <path
       id="path1332"
       style="fill:#23d1ba;fill-opacity:1;stroke-width:3.41956"
       d="M 145.46289 103.5293 C 145.32983 103.508 145.18332 103.50856 145.01562 103.53516 C 143.34568 103.76042 141.67882 104.09166 140.06055 104.56055 C 137.09131 105.50762 134.19696 106.64589 131.35352 107.92383 C 127.35721 109.7199 123.35005 111.49673 119.41406 113.42188 C 110.55387 117.76206 101.90475 122.52053 93.556641 127.79297 C 90.067494 130.06337 85.660983 132.02787 83.615234 135.32812 L 92.775391 131.43164 C 93.421724 131.67239 94.083243 132.05774 94.322266 132.74023 C 94.2747 132.50055 94.217121 131.6793 93.261719 131.22461 L 93.554688 131.10156 C 93.684467 131.1384 93.85585 131.17727 94.111328 131.2207 C 94.380001 131.26638 94.708955 131.31429 95.148438 131.36719 C 95.139438 131.27839 95.128323 131.19163 95.126953 131.08984 C 95.123953 130.86928 95.184965 130.9479 95.257812 131.00195 C 95.228754 131.11609 95.206189 131.23251 95.193359 131.35156 C 95.232239 131.33906 95.293662 131.31954 95.333984 131.30664 C 95.279684 131.61904 95.360234 131.92591 95.5 132.21875 C 95.40167 132.13785 95.32623 132.02015 95.265625 131.875 C 95.349825 132.20853 95.444588 132.57979 95.429688 132.9082 C 95.581221 132.8708 95.716205 132.84105 95.853516 132.81055 C 95.940396 132.94015 96.015544 133.07013 96.09375 133.20117 C 95.65858 133.65891 94.971177 134.31015 95.039062 134.38086 C 95.139862 134.56492 95.741032 135.27291 96.039062 135.09766 C 99.783597 132.89613 102.46683 131.75949 104.39844 131.09766 C 104.36704 131.15336 104.32313 131.21436 104.30273 131.26562 C 103.96284 132.1198 104.49758 133.09867 105.25391 133.47852 C 106.0861 133.79259 106.94832 133.2189 107.75195 133.01367 C 108.63533 132.7423 109.51241 132.46633 110.30859 131.98047 C 116.87563 128.47571 123.33308 124.74811 129.66211 120.83203 C 131.78487 119.46294 133.88728 118.06115 135.90039 116.5332 C 138.08053 114.89092 140.20255 113.17004 142.33984 111.47266 C 143.91356 110.15976 145.55537 108.85412 146.81836 107.23047 C 147.19988 106.45139 147.38816 105.63263 146.98828 104.81641 C 146.63985 104.21739 146.95798 104.67608 146.45898 104.17578 C 146.1362 103.85192 145.86208 103.59331 145.46289 103.5293 z M 95.429688 132.9082 C 95.219375 132.9601 95.025385 133.0013 94.847656 133.03516 C 95.01447 133.12676 95.108414 133.18521 95.310547 133.29492 C 95.390387 133.20252 95.422553 133.06541 95.429688 132.9082 z M 94.847656 133.03516 C 94.658306 132.93119 94.466046 132.82461 94.322266 132.74023 C 94.341616 132.83773 94.355389 132.9357 94.380859 133.0332 C 94.407369 133.1021 94.603533 133.08166 94.847656 133.03516 z M 95.193359 131.35156 C 95.180839 131.35556 95.160806 131.36329 95.148438 131.36719 C 95.153436 131.41589 95.170564 131.44519 95.177734 131.49023 C 95.185734 131.44493 95.188369 131.39783 95.193359 131.35156 z M 128.07617 111.50977 C 126.42452 112.45226 124.76767 113.38581 123.11133 114.32031 C 122.65374 114.49361 122.18972 114.66217 121.72656 114.83203 C 122.77106 113.55205 125.46997 112.46517 128.07617 111.50977 z M 114.68945 126.30664 C 114.2226 126.58646 113.76537 126.88211 113.29297 127.15234 C 109.93404 129.03588 111.17104 128.32816 114.68945 126.30664 z "
       transform="scale(0.26458333)" />
    <path
       style="fill:#23d1ba;fill-opacity:1;stroke-width:0.904758"
       id="path1334"
       d="m 35.028868,30.272811 c -0.110076,-0.24009 -0.078,-0.50651 -0.149298,-0.75578 -0.155112,-0.34039 -0.464097,-0.29935 -0.763565,-0.18969 -2.801036,1.45992 -2.453961,1.09072 -3.617697,2.55696 -0.02804,0.074 -0.247952,0.30516 -0.263169,0.37874 -0.0044,0.0202 0.0055,0.0407 0.0089,0.0611 0.460451,1.43804 3.231522,-1.37949 3.294961,-1.41486 0.02189,-0.012 0.01368,-0.0485 0.02633,-0.07 0.04117,-0.0699 0.133602,-0.16267 0.183254,-0.21684 0.341375,-0.31836 0.692305,-0.62813 1.044109,-0.93533 0.186298,-0.20453 0.543362,-0.30493 0.725837,-0.49665 0.0236,-0.0973 0.03645,-0.10197 -0.03512,-0.22849 -0.159352,-0.28157 -0.342859,-0.22473 -0.603984,-0.14109 -1.522926,0.77367 -3.035793,1.5917 -4.435888,2.57339 -0.36033,0.26871 -0.695817,0.57801 -0.91274,0.97607 0.0044,0.0198 -0.0065,0.0617 0.01368,0.0594 0.125259,-0.0147 0.2419,-0.0717 0.363985,-0.10327 0.694401,-0.1799 0.04668,0.0515 1.078818,-0.40233 0,0 0.137569,-0.0815 0.137569,-0.0815 v 0 c 0.226375,-0.12974 0.449638,-0.26509 0.679166,-0.38919 0.420696,-0.22743 0.311078,-0.11144 0.754462,-0.37869 0.03628,-0.0219 0.06124,-0.0585 0.09181,-0.0879 0.193513,-0.29162 0.420333,-0.54848 0.717845,-0.74176 0.0873,-0.0587 0.173064,-0.11989 0.261973,-0.17621 0.101698,-0.0644 0.206439,-0.12403 0.309642,-0.18603 -0.793192,0.45763 -1.586397,0.91527 -2.379599,1.3729 -0.158566,0.0919 0.320413,-0.17819 0.484128,-0.2606 0.0502,-0.0253 0.101185,-0.0489 0.15176,-0.0733 0.05745,-0.0274 0.127857,-0.0371 0.171628,-0.0832 0.03573,-0.0376 -0.07174,-0.2734 -0.101356,-0.32281 -0.0055,-0.009 -0.02086,-0.004 -0.03146,-0.007 -0.165268,0.0745 -0.338263,0.32643 -0.492451,0.42317 -0.341375,0.31621 -0.676681,0.64021 -1.038464,0.93324 -1.838111,1.45962 2.269342,-2.73778 2.738171,-1.08798 0.0055,0.008 0.0072,0.0202 0.01641,0.0239 0.01505,0.007 -0.0018,-0.0328 0.0038,-0.048 0.02565,-0.0724 0.0742,-0.13634 0.104467,-0.20651 0.111957,-0.20781 0.257733,-0.39303 0.441415,-0.5437 0.05988,-0.0491 0.25698,-0.17272 0.189478,-0.13466 -0.892253,0.50287 -1.776494,1.01983 -2.66475,1.52976 0.05827,-0.0431 0.326979,-0.23558 0.403485,-0.24228 0.01881,-0.002 0.03666,0.01 0.05502,0.014 0.177646,0.16527 0.243438,0.38959 0.318908,0.61217 0,0 2.71815,-1.50877 2.71815,-1.50877 z" />
    <path
       style="fill:#23d1ba;fill-opacity:1;stroke-width:0.904758"
       id="path1336"
       d="m 30.973347,67.638021 c -0.0663,-0.0103 -0.132679,-0.0205 -0.199018,-0.0342 0,0 -0.141331,0.0749 -0.141331,0.0749 v 0 c -0.05266,0.0739 -0.105391,0.14807 -0.158052,0.22193 0,0 0.498405,-0.26399 0.498405,-0.26399 z" />
    <path
       id="path1378"
       style="fill:#23d1ba;fill-opacity:1;stroke-width:1.13273"
       d="m 22.483635,23.505601 c -1.288762,-0.0103 -2.890616,0.63047 -4.024967,1.02993 -3.477303,1.26479 -6.831037,2.71595 -10.111639,4.25936 -0.534252,0.28837 -1.429255,0.707 -1.536814,1.27236 -0.01915,0.0993 -0.02736,0.20948 0.03283,0.2987 0.07636,0.11408 0.233761,0.18397 0.350762,0.27541 0.171594,0.0315 0.339426,0.0798 0.514798,0.095 1.08949,0.0945 2.548902,-0.32834 3.565688,-0.59351 1.552893,-0.40164 3.051325,-0.90927 4.547336,-1.41978 1.179261,-0.40363 2.341933,-0.8347 3.522807,-1.23553 2.289798,-0.71238 3.331007,-1.39884 6.278449,-2.74452 0.208354,-0.0951 0.166567,-0.31272 0.15901,-0.46163 -0.0727,-0.16141 -0.179117,-0.27384 -0.300307,-0.36852 -0.369128,0.16779 -0.627445,0.28423 -1.28699,0.58964 -0.223981,0.0948 -0.453362,0.18274 -0.678821,0.27541 0.47441,-0.21106 1.795302,-0.79867 1.958241,-0.87088 -0.246893,-0.18906 -0.578457,-0.27664 -0.991735,-0.33942 -0.795842,-0.003 -1.572347,0.13459 -2.339283,0.2987 l 0.608173,-0.32972 c -0.08888,-0.0103 -0.177544,-0.0304 -0.267513,-0.0311 z m 2.99035,0.4015 c 0.0025,0.002 0.0048,0.004 0.0072,0.006 0.254723,-0.11579 0.246414,-0.11839 -0.0072,-0.006 z m -5.92517,2.63397 c 0.02941,0.01 0.05782,0.0239 0.08077,0.0465 -0.05742,-0.0277 -0.04589,-0.0325 -0.1388,-0.01 -0.0371,0.009 -0.139758,0.0517 -0.105973,0.0369 0.117018,-0.052 0.05064,-0.0233 0.164037,-0.0737 z" />
    <path
       style="fill:#23d1ba;fill-opacity:1;stroke-width:0.264583"
       id="path2009"
       d="m 24.65717,34.602285 c 0.04534,0.0328 0.08857,0.07041 0.124062,0.113929 0.01672,0.0205 0.02993,0.04367 0.04602,0.06466 0.05324,0.06946 0.05917,0.07186 0.120485,0.135078 0.09492,0.09115 0.198312,0.173487 0.288666,0.269362 0.02906,0.02368 0.04982,0.05814 0.0796,0.08085 0.128023,-0.06118 0.248552,-0.139219 0.369957,-0.211632 0,0 0.02815,-0.01736 0.02815,-0.01736 v 0 c 0.114082,-0.0725 0.243356,-0.143457 0.347753,-0.232971 -0.03085,-0.03167 -0.0771,-0.04697 -0.113763,-0.07014 -0.122225,-0.06247 -0.239584,-0.134544 -0.344088,-0.224089 -0.114895,-0.09407 -0.239514,-0.176834 -0.341894,-0.285139 0,0 -0.604943,0.377452 -0.604943,0.377452 z" />
    <path
       id="path2011"
       style="fill:#23d1ba;fill-opacity:1;stroke-width:0.999999"
       d="M 95.734375 129.05664 C 95.712094 129.0664 95.667282 129.07795 95.642578 129.08789 C 95.683573 129.09702 95.748399 129.11498 95.722656 129.13086 C 95.694079 129.1484 95.663499 129.16241 95.634766 129.17969 C 95.629508 129.15805 95.617469 129.13926 95.613281 129.11719 C 95.616121 129.10998 95.61902 129.10417 95.621094 129.0957 C 95.453567 129.16195 95.245838 129.22968 95.011719 129.30273 C 95.00564 129.29847 95.000459 129.293 94.994141 129.28906 C 94.940849 129.2558 94.878479 129.24237 94.820312 129.21875 L 94.3125 129.53516 C 93.738856 129.72627 93.250362 129.92737 93.351562 130.13086 L 92.462891 130.68164 C 92.486324 130.72836 92.499414 130.78262 92.533203 130.82227 C 92.58298 130.88036 92.650099 130.91996 92.708984 130.96875 C 92.778981 131.02684 92.849698 131.08475 92.919922 131.14258 C 93.149755 131.33186 93.375766 131.51971 93.59375 131.72266 C 93.856647 132.00956 94.149233 132.26623 94.435547 132.5293 C 94.496951 132.69908 94.548624 132.84709 94.619141 133.06055 C 94.644841 133.15866 94.669652 133.25544 94.695312 133.35352 C 94.710053 133.4319 94.718514 133.51255 94.738281 133.58984 C 94.751888 133.64295 94.780257 133.69127 94.794922 133.74414 C 94.802859 133.77287 94.78094 133.84726 94.806641 133.83203 C 94.871045 133.79408 94.920389 133.77005 94.982422 133.73438 C 94.961943 134.16691 95.19675 133.79847 96.580078 132.91211 C 97.204574 132.63405 97.513738 132.52884 97.404297 132.44531 C 98.700507 131.94926 99.008603 132.04866 98.265625 131.69141 C 98.221556 131.6436 98.20359 131.61116 98.128906 131.58398 C 97.897864 131.42834 97.67428 131.26509 97.453125 131.0957 C 97.146616 130.85767 96.835493 130.62225 96.515625 130.40234 C 96.485214 130.33387 96.456829 130.26453 96.423828 130.19727 C 96.378247 130.10436 96.136732 129.68068 96.074219 129.57031 C 95.823409 129.17456 96.036815 129.50112 95.8125 129.17383 C 95.786043 129.13494 95.777424 129.03771 95.734375 129.05664 z M 95.621094 129.0957 C 95.627043 129.09335 95.636755 129.09023 95.642578 129.08789 C 95.6347 129.08614 95.632741 129.08075 95.626953 129.08008 C 95.621241 129.07936 95.622608 129.08952 95.621094 129.0957 z M 95.060547 133.17969 C 95.067018 133.1869 95.073661 133.19391 95.080078 133.20117 C 95.055932 133.26205 95.054261 133.2571 95.013672 133.35742 C 94.849539 133.28639 94.876699 133.2467 95.060547 133.17969 z "
       transform="scale(0.26458333)" />
  </g>
</svg>
